<?xml version="1.0" encoding="iso-8859-1"?>
<!-- Generator: Adobe Illustrator 19.0.0, SVG Export Plug-In . SVG Version: 6.00 Build 0)  -->
<svg version="1.1" id="Capa_1" xmlns="http://www.w3.org/2000/svg" xmlns:xlink="http://www.w3.org/1999/xlink" x="0px" y="0px"
	 viewBox="0 0 448 448" style="enable-background:new 0 0 448 448;" xml:space="preserve">
<g>
	<g>
		<path d="M416,32H32C14.4,32,0,46.399,0,64v320c0,17.6,14.4,32,32,32h384c17.6,0,32-14.4,32-32V64C448,46.399,433.6,32,416,32z
			 M432,384c0,9.6-6.4,16-16,16H32c-9.6,0-16-6.4-16-16V128h416V384z M432,112H16V64c0-9.601,6.4-16,16-16h384c9.6,0,16,6.399,16,16
			V112z"/>
	</g>
</g>
<g>
	<g>
		<circle cx="176" cy="80" r="16"/>
	</g>
</g>
<g>
	<g>
		<circle cx="112" cy="80" r="16"/>
	</g>
</g>
<g>
	<g>
		<circle cx="48" cy="80" r="16"/>
	</g>
</g>
<g>
	<g>
		<rect x="127.974" y="247.997" transform="matrix(0.2593 -0.9658 0.9658 0.2593 -81.3467 405.9272)" width="191.993" height="16"/>
	</g>
</g>
<g>
	<g>
		<polygon points="102.625,256 170.516,188.116 159.187,176.804 80,256 159.195,335.204 170.523,323.892 		"/>
	</g>
</g>
<g>
	<g>
		<polygon points="288.805,176.796 277.477,188.108 345.375,256 277.484,323.884 288.813,335.196 368,256 		"/>
	</g>
</g>
<g>
</g>
<g>
</g>
<g>
</g>
<g>
</g>
<g>
</g>
<g>
</g>
<g>
</g>
<g>
</g>
<g>
</g>
<g>
</g>
<g>
</g>
<g>
</g>
<g>
</g>
<g>
</g>
<g>
</g>
</svg>
